<svg version="1.1" id="Layer_1" xmlns="http://www.w3.org/2000/svg" xmlns:xlink="http://www.w3.org/1999/xlink" x="0px" y="0px"
	 width="100%" viewBox="0 0 458 512" enable-background="new 0 0 458 512" xml:space="preserve">
<path fill="#000000" opacity="1.000000" stroke="none" 
	d="
M1.000000,151.000000 
	C1.000000,100.679497 1.000000,50.858990 1.000000,1.019243 
	C153.614532,1.019243 306.229065,1.019243 458.921814,1.019243 
	C458.921814,171.570572 458.921814,342.141174 458.921814,512.855896 
	C306.333435,512.855896 153.666733,512.855896 1.000000,512.855896 
	C1.000000,392.437500 1.000000,271.968750 1.000000,151.000000 
M448.985046,64.577690 
	C445.689636,62.704620 442.587891,59.883179 439.057220,59.162342 
	C432.378204,57.798717 425.456512,57.601009 418.629059,56.992268 
	C407.042664,55.959206 395.409302,55.321529 383.872955,53.893192 
	C370.864471,52.282581 357.771667,50.724167 345.020813,47.808147 
	C325.655762,43.379513 306.208618,38.811848 287.443359,32.407436 
	C270.756500,26.712376 254.975769,18.378717 238.734879,11.348751 
	C234.783951,9.638564 230.743835,7.842446 226.191513,9.913389 
	C217.476532,13.878022 208.784302,17.924282 199.896530,21.470201 
	C185.616211,27.167559 171.447342,33.373028 156.746277,37.725243 
	C140.741180,42.463516 124.258255,45.722561 107.843269,48.901665 
	C93.032692,51.770042 78.089111,54.173534 63.098713,55.824070 
	C50.195229,57.244827 37.145527,57.370449 24.155590,57.961262 
	C15.901927,58.336655 6.410270,66.367828 6.096712,73.751808 
	C5.598445,85.485504 5.241478,97.227509 5.014316,108.969658 
	C4.846763,117.630608 4.937982,126.297699 4.997113,134.961487 
	C5.035349,140.563736 5.165975,146.167007 5.365014,151.765915 
	C5.499123,155.538330 6.069768,159.307983 6.007206,163.071594 
	C5.914459,168.651001 5.118403,174.227844 5.187062,179.798798 
	C5.310200,189.790268 5.824962,199.777740 6.235893,209.764420 
	C6.403849,213.846146 6.484924,217.953827 7.024191,221.993820 
	C8.910906,236.128418 10.543025,250.317688 13.078561,264.340302 
	C17.288471,287.622925 25.087885,309.830902 34.829933,331.356842 
	C43.930191,351.464691 54.757988,370.613220 68.085480,388.212280 
	C75.934959,398.577606 83.960503,408.943054 93.013718,418.229401 
	C104.248276,429.753296 116.293907,440.555542 128.590698,450.958557 
	C146.748764,466.320099 167.396759,477.960815 188.348129,489.050079 
	C197.983231,494.149780 207.640533,499.227417 217.063187,504.701630 
	C223.527618,508.457184 230.133102,510.566620 237.134445,507.298920 
	C245.690628,503.305511 254.084198,498.907501 262.290558,494.232422 
	C279.835602,484.237274 297.564270,474.495117 314.538757,463.592224 
	C325.782562,456.370239 336.601624,448.102722 346.254303,438.883057 
	C358.897858,426.806732 370.277283,413.396759 382.064026,400.436401 
	C392.869751,388.554749 401.006561,374.842834 409.375000,361.197327 
	C420.330719,343.333099 428.888367,324.414886 435.830261,304.817719 
	C441.766083,288.060760 447.075409,271.002869 449.054810,253.152161 
	C450.597504,239.239975 453.571381,225.364059 453.744629,211.445068 
	C454.298187,166.970551 453.758789,122.483208 453.894653,78.001602 
	C453.910126,72.938171 452.474762,68.869995 448.985046,64.577690 
z"/>
<path fill="#F4F6F6" opacity="1.000000" stroke="none" 
	d="
M449.279907,64.805397 
	C452.474762,68.869995 453.910126,72.938171 453.894653,78.001602 
	C453.758789,122.483208 454.298187,166.970551 453.744629,211.445068 
	C453.571381,225.364059 450.597504,239.239975 449.054810,253.152161 
	C447.075409,271.002869 441.766083,288.060760 435.830261,304.817719 
	C428.888367,324.414886 420.330719,343.333099 409.375000,361.197327 
	C401.006561,374.842834 392.869751,388.554749 382.064026,400.436401 
	C370.277283,413.396759 358.897858,426.806732 346.254303,438.883057 
	C336.601624,448.102722 325.782562,456.370239 314.538757,463.592224 
	C297.564270,474.495117 279.835602,484.237274 262.290558,494.232422 
	C254.084198,498.907501 245.690628,503.305511 237.134445,507.298920 
	C230.133102,510.566620 223.527618,508.457184 217.063187,504.701630 
	C207.640533,499.227417 197.983231,494.149780 188.348129,489.050079 
	C167.396759,477.960815 146.748764,466.320099 128.590698,450.958557 
	C116.293907,440.555542 104.248276,429.753296 93.013718,418.229401 
	C83.960503,408.943054 75.934959,398.577606 68.085480,388.212280 
	C54.757988,370.613220 43.930191,351.464691 34.829933,331.356842 
	C25.087885,309.830902 17.288471,287.622925 13.078561,264.340302 
	C10.543025,250.317688 8.910906,236.128418 7.024191,221.993820 
	C6.484924,217.953827 6.403849,213.846146 6.235893,209.764420 
	C5.824962,199.777740 5.310200,189.790268 5.187062,179.798798 
	C5.118403,174.227844 5.914459,168.651001 6.007206,163.071594 
	C6.069768,159.307983 5.499123,155.538330 5.365014,151.765915 
	C5.165975,146.167007 5.035349,140.563736 4.997113,134.961487 
	C4.937982,126.297699 4.846763,117.630608 5.014316,108.969658 
	C5.241478,97.227509 5.598445,85.485504 6.096712,73.751808 
	C6.410270,66.367828 15.901927,58.336655 24.155590,57.961262 
	C37.145527,57.370449 50.195229,57.244827 63.098713,55.824070 
	C78.089111,54.173534 93.032692,51.770042 107.843269,48.901665 
	C124.258255,45.722561 140.741180,42.463516 156.746277,37.725243 
	C171.447342,33.373028 185.616211,27.167559 199.896530,21.470201 
	C208.784302,17.924282 217.476532,13.878022 226.191513,9.913389 
	C230.743835,7.842446 234.783951,9.638564 238.734879,11.348751 
	C254.975769,18.378717 270.756500,26.712376 287.443359,32.407436 
	C306.208618,38.811848 325.655762,43.379513 345.020813,47.808147 
	C357.771667,50.724167 370.864471,52.282581 383.872955,53.893192 
	C395.409302,55.321529 407.042664,55.959206 418.629059,56.992268 
	C425.456512,57.601009 432.378204,57.798717 439.057220,59.162342 
	C442.587891,59.883179 445.689636,62.704620 449.279907,64.805397 
M34.197235,324.209869 
	C41.885155,338.756653 48.885044,353.721344 57.411839,367.758545 
	C72.668083,392.874023 90.955063,415.779724 113.490669,434.770569 
	C128.056641,447.045349 143.108307,458.988403 159.121674,469.237427 
	C177.995392,481.317169 198.190506,491.322723 217.715256,502.399414 
	C225.824829,507.000122 233.627380,507.256775 241.828568,502.655273 
	C255.754196,494.841919 269.838531,487.311920 283.831970,479.618835 
	C314.948303,462.512238 342.740234,441.231506 366.760925,414.928680 
	C389.486725,390.043793 407.905701,362.461853 422.119171,331.926880 
	C441.994446,289.228546 451.522858,244.258820 451.919189,197.334549 
	C452.248535,158.338699 451.991455,119.337852 451.985901,80.339226 
	C451.984070,67.342339 445.105103,60.604511 432.052826,59.964928 
	C417.648193,59.259068 403.157745,58.842117 388.903839,56.864193 
	C367.435272,53.885139 345.948761,50.509190 324.816315,45.760265 
	C294.897858,39.036922 266.058411,28.885201 239.010864,14.085858 
	C233.076950,10.839049 226.937744,11.290548 220.774307,14.099187 
	C206.721344,20.503036 192.868561,27.492567 178.414764,32.839211 
	C150.492264,43.168095 121.756508,50.799969 92.083290,54.109871 
	C71.019218,56.459469 49.900642,58.485523 28.755323,59.883385 
	C14.750915,60.809181 7.941370,66.954514 8.028221,81.016731 
	C8.301812,125.313683 8.332827,169.616028 9.152699,213.903412 
	C9.409246,227.761475 11.121264,241.707870 13.485378,255.385986 
	C17.541739,278.854919 24.661037,301.529083 34.197235,324.209869 
z"/>
<path fill="#C0DAF0" opacity="1.000000" stroke="none" 
	d="
M34.096497,323.841553 
	C24.661037,301.529083 17.541739,278.854919 13.485378,255.385986 
	C11.121264,241.707870 9.409246,227.761475 9.152699,213.903412 
	C8.332827,169.616028 8.301812,125.313683 8.028221,81.016731 
	C7.941370,66.954514 14.750915,60.809181 28.755323,59.883385 
	C49.900642,58.485523 71.019218,56.459469 92.083290,54.109871 
	C121.756508,50.799969 150.492264,43.168095 178.414764,32.839211 
	C192.868561,27.492567 206.721344,20.503036 220.774307,14.099187 
	C226.937744,11.290548 233.076950,10.839049 239.010864,14.085858 
	C266.058411,28.885201 294.897858,39.036922 324.816315,45.760265 
	C345.948761,50.509190 367.435272,53.885139 388.903839,56.864193 
	C403.157745,58.842117 417.648193,59.259068 432.052826,59.964928 
	C445.105103,60.604511 451.984070,67.342339 451.985901,80.339226 
	C451.991455,119.337852 452.248535,158.338699 451.919189,197.334549 
	C451.522858,244.258820 441.994446,289.228546 422.119171,331.926880 
	C407.905701,362.461853 389.486725,390.043793 366.760925,414.928680 
	C342.740234,441.231506 314.948303,462.512238 283.831970,479.618835 
	C269.838531,487.311920 255.754196,494.841919 241.828568,502.655273 
	C233.627380,507.256775 225.824829,507.000122 217.715256,502.399414 
	C198.190506,491.322723 177.995392,481.317169 159.121674,469.237427 
	C143.108307,458.988403 128.056641,447.045349 113.490669,434.770569 
	C90.955063,415.779724 72.668083,392.874023 57.411839,367.758545 
	C48.885044,353.721344 41.885155,338.756653 34.096497,323.841553 
M374.057648,90.060287 
	C327.460480,84.086098 282.668518,71.676140 239.347626,52.010670 
	C232.852585,47.945984 226.463028,47.975292 219.498093,52.862083 
	C176.518326,71.842773 131.755524,84.403656 84.233978,90.057533 
	C78.774567,90.754974 73.315163,91.452415 67.004166,92.101883 
	C62.688206,92.409821 58.376423,92.808670 54.055431,93.006966 
	C44.787392,93.432297 42.174599,96.037186 42.171394,105.176201 
	C42.161121,134.491898 42.187729,163.807602 42.160851,193.123276 
	C42.140335,215.502304 44.120308,237.673584 49.040474,259.532166 
	C59.385475,305.491364 79.516777,346.612152 110.107506,383.181793 
	C115.988258,389.418854 121.869019,395.655914 128.225403,402.401947 
	C136.213806,409.409332 144.202209,416.416748 152.469376,423.942780 
	C158.312775,427.960358 164.156158,431.977936 170.470047,436.475525 
	C176.021317,439.856903 181.572586,443.238251 187.494095,447.094482 
	C193.043365,450.035370 198.592651,452.976257 204.687820,456.323029 
	C210.151016,459.286469 215.614212,462.249908 221.490799,465.776428 
	C227.408386,468.922485 233.238678,469.349060 239.611130,464.989105 
	C245.032822,461.971405 250.454529,458.953705 256.602631,455.918304 
	C262.024597,452.826996 267.446533,449.735687 273.571869,446.347504 
	C279.054260,442.901428 284.536621,439.455383 290.713593,435.932861 
	C296.156158,431.884399 301.598755,427.835907 307.634064,423.532532 
	C315.833801,416.318787 324.033508,409.105042 332.802460,401.646118 
	C338.522797,395.269562 344.243134,388.892975 350.506927,382.047638 
	C389.473145,335.218536 412.536652,281.451782 416.430298,220.737411 
	C418.942169,181.568878 417.542114,142.146851 417.778473,102.837730 
	C417.814758,96.807495 414.615753,93.664085 408.587433,93.169998 
	C403.115143,92.721497 397.625732,92.481773 391.330688,91.915176 
	C385.850403,91.338974 380.370117,90.762772 374.057648,90.060287 
z"/>
<path fill="#163B78" opacity="1.000000" stroke="none" 
	d="
M110.034538,382.578003 
	C79.516777,346.612152 59.385475,305.491364 49.040474,259.532166 
	C44.120308,237.673584 42.140335,215.502304 42.160851,193.123276 
	C42.187729,163.807602 42.161121,134.491898 42.171394,105.176201 
	C42.174599,96.037186 44.787392,93.432297 54.055431,93.006966 
	C58.376423,92.808670 62.688206,92.409821 67.454079,92.582764 
	C67.916290,115.221741 68.037628,137.380539 67.893578,159.537643 
	C67.824516,170.161240 71.570564,178.992401 79.026009,186.403870 
	C84.815544,192.159241 90.516640,198.004623 96.360420,203.703995 
	C100.299202,207.545441 102.076080,212.094147 102.036613,217.578812 
	C101.975525,226.068909 102.151672,234.560715 102.107224,243.373169 
	C101.273163,244.368942 100.579010,245.065994 99.841949,245.714233 
	C92.161194,252.469543 91.350792,263.370300 98.005005,270.531219 
	C104.781464,277.823700 115.982018,277.914673 122.853546,270.733063 
	C129.666122,263.613098 129.050034,252.850204 121.462135,245.908142 
	C120.502708,245.030411 119.676781,244.006744 118.879578,242.586639 
	C118.986771,233.629715 119.030586,225.136765 119.012718,216.643951 
	C118.992897,207.222122 115.802589,199.063385 109.116127,192.353699 
	C103.120995,186.337738 96.700768,180.683945 91.249474,174.212204 
	C88.316856,170.730606 85.366058,165.903564 85.269669,161.619553 
	C84.734138,137.819504 85.071602,113.999802 85.110291,90.186829 
	C131.755524,84.403656 176.518326,71.842773 220.145142,53.025612 
	C220.945557,55.165894 221.208008,57.141209 221.234055,59.119637 
	C221.370102,69.444656 221.446075,79.770462 221.310364,90.366638 
	C220.077530,91.514023 219.026291,92.339546 218.085495,93.276031 
	C212.833618,98.503731 211.468933,106.005913 214.538147,112.568886 
	C217.716141,119.364433 224.253082,122.946968 232.094742,122.190651 
	C238.980331,121.526543 244.801605,116.539413 246.513977,109.550766 
	C248.570908,101.155937 244.757187,95.082939 238.544388,89.634827 
	C238.676300,78.797462 238.660965,68.423538 238.794327,58.051529 
	C238.818573,56.164391 239.450500,54.285065 239.801910,52.402134 
	C282.668518,71.676140 327.460480,84.086098 374.509155,90.576210 
	C374.982666,113.745201 374.910889,136.399002 375.087524,159.050873 
	C375.136444,165.322784 372.994446,170.339279 368.597351,174.651932 
	C362.532837,180.600067 356.557098,186.639221 350.577240,192.673004 
	C344.969391,198.331390 341.512146,205.210373 341.172302,213.092346 
	C340.742523,223.059219 341.159058,233.062592 341.070618,243.365753 
	C339.965454,244.582230 338.993958,245.476593 338.035950,246.385162 
	C330.813904,253.234467 330.484924,263.897766 337.277649,270.866455 
	C344.063141,277.827606 355.053314,277.779022 361.781342,270.758026 
	C368.451355,263.797607 367.989868,252.908737 360.773438,246.233887 
	C359.705627,245.246216 358.769348,244.116364 357.859253,242.587646 
	C357.963837,234.294708 358.178040,226.460373 357.937775,218.639984 
	C357.739319,212.182129 359.933838,207.059433 364.628937,202.667755 
	C369.734863,197.891785 374.403534,192.648193 379.511353,187.874344 
	C388.464935,179.506134 392.383118,169.417175 392.172302,157.107483 
	C391.801575,135.461182 392.116241,113.803139 392.143890,92.150009 
	C397.625732,92.481773 403.115143,92.721497 408.587433,93.169998 
	C414.615753,93.664085 417.814758,96.807495 417.778473,102.837730 
	C417.542114,142.146851 418.942169,181.568878 416.430298,220.737411 
	C412.536652,281.451782 389.473145,335.218536 350.147522,381.778625 
	C349.751617,379.513947 349.684448,377.518219 349.683502,375.522522 
	C349.674927,357.717285 349.680664,339.912018 349.675720,322.106781 
	C349.674591,318.018921 349.519836,313.593872 345.374268,311.687866 
	C342.980713,310.587402 339.440826,310.491302 336.959045,311.409119 
	C332.896790,312.911469 332.208191,316.970703 332.212067,321.019257 
	C332.237854,347.976624 332.230072,374.933960 332.233215,401.891296 
	C324.033508,409.105042 315.833801,416.318787 307.312653,423.207520 
	C306.966583,363.255463 306.829132,303.627869 307.129761,244.002518 
	C307.153961,239.193405 309.513763,234.013184 311.990295,229.694778 
	C315.196472,224.104111 319.630768,219.221054 323.500610,214.006836 
	C328.577026,207.166901 331.937988,199.589493 332.084564,190.993729 
	C332.288940,179.007919 332.113434,167.015640 332.300812,154.765656 
	C333.518311,153.649765 334.586365,152.847443 335.544342,151.930191 
	C341.399139,146.324051 342.595703,137.912949 338.566650,130.920273 
	C334.736084,124.272171 326.867126,121.094254 319.220734,123.107315 
	C311.893311,125.036407 306.900116,131.989441 306.881500,139.896347 
	C306.865723,146.610641 310.836487,150.910080 315.342346,155.393051 
	C315.232086,161.183899 315.213745,166.509613 315.179779,171.835205 
	C315.007263,198.884979 317.496979,193.996002 300.292023,216.331970 
	C292.962280,225.847687 289.709076,236.240799 289.756042,248.265091 
	C289.979065,305.355621 289.851074,362.447540 289.862518,419.538940 
	C289.863617,425.029053 289.964447,430.519196 290.018982,436.009338 
	C284.536621,439.455383 279.054260,442.901428 273.208374,445.978577 
	C272.837616,362.378662 272.832092,279.147675 272.814423,195.916672 
	C272.813934,193.590286 272.683899,191.263947 272.820496,188.654602 
	C273.913300,187.623901 274.844574,186.922760 275.679138,186.120926 
	C281.306213,180.714676 282.744659,172.892136 279.392578,166.084015 
	C276.147095,159.492401 269.412628,156.000076 261.664307,156.890640 
	C254.549973,157.708344 248.613495,163.293762 247.319733,170.754883 
	C245.933167,178.751251 249.866180,184.424057 255.814713,189.526794 
	C255.770203,264.309479 255.759308,338.628815 255.766037,412.948120 
	C255.767334,427.277405 255.837708,441.606720 255.876221,455.936005 
	C250.454529,458.953705 245.032822,461.971405 239.203949,464.621399 
	C238.779739,414.456909 238.773224,364.660126 238.714584,314.863373 
	C238.711685,312.391754 238.646576,309.798279 237.920486,307.477386 
	C236.775146,303.816223 234.030518,301.839142 230.013321,301.832001 
	C225.996964,301.824860 223.270996,303.796173 222.079163,307.446106 
	C221.375381,309.601440 221.289749,312.027374 221.286255,314.332214 
	C221.238678,345.642639 221.274918,376.953247 221.246567,408.263733 
	C221.229370,427.246979 221.136353,446.230164 221.077393,465.213379 
	C215.614212,462.249908 210.151016,459.286469 204.448349,455.657837 
	C204.219025,401.005951 204.243118,347.019257 204.234329,293.032593 
	C204.228683,258.375671 204.174576,223.718735 204.380585,188.835007 
	C205.492340,187.846207 206.394302,187.114334 207.234497,186.317368 
	C213.569595,180.308167 214.750427,171.839661 210.277267,164.613327 
	C206.145203,157.938034 197.749039,154.975098 190.279907,157.556458 
	C182.619415,160.203934 178.125320,167.566177 178.984451,175.949997 
	C179.576447,181.727005 183.333344,185.415985 187.310211,189.405304 
	C187.219666,192.202957 187.180038,194.533569 187.179459,196.864182 
	C187.158661,280.115997 187.141525,363.367828 187.123856,446.619629 
	C181.572586,443.238251 176.021317,439.856903 170.284607,435.769409 
	C170.108139,371.482269 170.112732,307.901245 170.130829,244.320251 
	C170.133530,234.826645 167.125641,226.377899 161.460175,218.822220 
	C157.767776,213.897934 154.106430,208.949966 150.375610,204.054977 
	C146.497772,198.967087 144.721893,193.298019 144.776199,186.868408 
	C144.866135,176.223389 144.654694,165.575836 144.775726,154.643707 
	C145.861404,153.598282 146.775314,152.873932 147.616287,152.072998 
	C153.286255,146.673035 154.759186,138.837509 151.412582,131.994293 
	C148.261734,125.551361 141.295090,121.788506 134.167450,122.679756 
	C126.466797,123.642677 120.648033,128.983047 119.314903,136.671051 
	C117.921814,144.704712 121.986115,150.340881 127.843079,155.504761 
	C127.780472,160.296646 127.747162,164.624985 127.767410,168.953049 
	C127.919403,201.444336 125.180832,199.832108 146.954971,227.878250 
	C151.194427,233.338867 153.165451,239.390640 153.153198,246.381393 
	C153.052872,303.647461 153.105652,360.913849 153.060165,418.180084 
	C153.058777,419.928345 152.493164,421.676117 152.190613,423.424133 
	C144.202209,416.416748 136.213806,409.409332 128.004395,401.692810 
	C127.781509,374.831665 127.795158,348.679688 127.748955,322.527802 
	C127.745171,320.388489 127.620033,318.169952 127.050491,316.127899 
	C125.917633,312.066132 122.753616,310.143005 118.773766,310.238556 
	C114.992020,310.329407 112.047531,312.359955 111.068878,316.215637 
	C110.504204,318.440308 110.367157,320.818665 110.350151,323.130127 
	C110.204422,342.945801 110.130157,362.761963 110.034538,382.578003 
z"/>
<path fill="#57D0D0" opacity="1.000000" stroke="none" 
	d="
M152.329987,423.683472 
	C152.493164,421.676117 153.058777,419.928345 153.060165,418.180084 
	C153.105652,360.913849 153.052872,303.647461 153.153198,246.381393 
	C153.165451,239.390640 151.194427,233.338867 146.954971,227.878250 
	C125.180832,199.832108 127.919403,201.444336 127.767410,168.953049 
	C127.747162,164.624985 127.780472,160.296646 128.237900,155.536133 
	C134.008789,157.548172 139.292908,156.548401 144.570236,154.929352 
	C144.654694,165.575836 144.866135,176.223389 144.776199,186.868408 
	C144.721893,193.298019 146.497772,198.967087 150.375610,204.054977 
	C154.106430,208.949966 157.767776,213.897934 161.460175,218.822220 
	C167.125641,226.377899 170.133530,234.826645 170.130829,244.320251 
	C170.112732,307.901245 170.108139,371.482269 170.049362,435.529388 
	C164.156158,431.977936 158.312775,427.960358 152.329987,423.683472 
z"/>
<path fill="#57D0D0" opacity="1.000000" stroke="none" 
	d="
M290.366272,435.971069 
	C289.964447,430.519196 289.863617,425.029053 289.862518,419.538940 
	C289.851074,362.447540 289.979065,305.355621 289.756042,248.265091 
	C289.709076,236.240799 292.962280,225.847687 300.292023,216.331970 
	C317.496979,193.996002 315.007263,198.884979 315.179779,171.835205 
	C315.213745,166.509613 315.232086,161.183899 315.711548,155.421310 
	C321.471039,157.331543 326.784180,156.789474 332.100494,155.026123 
	C332.113434,167.015640 332.288940,179.007919 332.084564,190.993729 
	C331.937988,199.589493 328.577026,207.166901 323.500610,214.006836 
	C319.630768,219.221054 315.196472,224.104111 311.990295,229.694778 
	C309.513763,234.013184 307.153961,239.193405 307.129761,244.002518 
	C306.829132,303.627869 306.966583,363.255463 307.016296,423.334961 
	C301.598755,427.835907 296.156158,431.884399 290.366272,435.971069 
z"/>
<path fill="#57CFCF" opacity="1.000000" stroke="none" 
	d="
M187.308975,446.857056 
	C187.141525,363.367828 187.158661,280.115997 187.179459,196.864182 
	C187.180038,194.533569 187.219666,192.202957 187.669922,189.481232 
	C193.451065,191.629852 198.797913,191.069962 204.142197,189.061798 
	C204.174576,223.718735 204.228683,258.375671 204.234329,293.032593 
	C204.243118,347.019257 204.219025,401.005951 204.175400,455.454895 
	C198.592651,452.976257 193.043365,450.035370 187.308975,446.857056 
z"/>
<path fill="#57CFCF" opacity="1.000000" stroke="none" 
	d="
M256.239441,455.927155 
	C255.837708,441.606720 255.767334,427.277405 255.766037,412.948120 
	C255.759308,338.628815 255.770203,264.309479 256.211914,189.551315 
	C261.997894,191.541382 267.320068,191.519043 272.614227,188.937576 
	C272.683899,191.263947 272.813934,193.590286 272.814423,195.916672 
	C272.832092,279.147675 272.837616,362.378662 272.856659,446.127014 
	C267.446533,449.735687 262.024597,452.826996 256.239441,455.927155 
z"/>
<path fill="#55CACC" opacity="1.000000" stroke="none" 
	d="
M221.284088,465.494904 
	C221.136353,446.230164 221.229370,427.246979 221.246567,408.263733 
	C221.274918,376.953247 221.238678,345.642639 221.286255,314.332214 
	C221.289749,312.027374 221.375381,309.601440 222.079163,307.446106 
	C223.270996,303.796173 225.996964,301.824860 230.013321,301.832001 
	C234.030518,301.839142 236.775146,303.816223 237.920486,307.477386 
	C238.646576,309.798279 238.711685,312.391754 238.714584,314.863373 
	C238.773224,364.660126 238.779739,414.456909 238.859680,464.735229 
	C233.238678,469.349060 227.408386,468.922485 221.284088,465.494904 
z"/>
<path fill="#58D1D0" opacity="1.000000" stroke="none" 
	d="
M391.737305,92.032593 
	C392.116241,113.803139 391.801575,135.461182 392.172302,157.107483 
	C392.383118,169.417175 388.464935,179.506134 379.511353,187.874344 
	C374.403534,192.648193 369.734863,197.891785 364.628937,202.667755 
	C359.933838,207.059433 357.739319,212.182129 357.937775,218.639984 
	C358.178040,226.460373 357.963837,234.294708 357.449951,242.575653 
	C351.705902,243.035599 346.458252,243.042923 341.210571,243.050232 
	C341.159058,233.062592 340.742523,223.059219 341.172302,213.092346 
	C341.512146,205.210373 344.969391,198.331390 350.577240,192.673004 
	C356.557098,186.639221 362.532837,180.600067 368.597351,174.651932 
	C372.994446,170.339279 375.136444,165.322784 375.087524,159.050873 
	C374.910889,136.399002 374.982666,113.745201 374.925262,90.639343 
	C380.370117,90.762772 385.850403,91.338974 391.737305,92.032593 
z"/>
<path fill="#58D1D0" opacity="1.000000" stroke="none" 
	d="
M102.227219,243.051788 
	C102.151672,234.560715 101.975525,226.068909 102.036613,217.578812 
	C102.076080,212.094147 100.299202,207.545441 96.360420,203.703995 
	C90.516640,198.004623 84.815544,192.159241 79.026009,186.403870 
	C71.570564,178.992401 67.824516,170.161240 67.893578,159.537643 
	C68.037628,137.380539 67.916290,115.221741 67.879868,92.606750 
	C73.315163,91.452415 78.774567,90.754974 84.672134,90.122177 
	C85.071602,113.999802 84.734138,137.819504 85.269669,161.619553 
	C85.366058,165.903564 88.316856,170.730606 91.249474,174.212204 
	C96.700768,180.683945 103.120995,186.337738 109.116127,192.353699 
	C115.802589,199.063385 118.992897,207.222122 119.012718,216.643951 
	C119.030586,225.136765 118.986771,233.629715 118.469254,242.575287 
	C112.721306,243.035919 107.474258,243.043854 102.227219,243.051788 
z"/>
<path fill="#56CECF" opacity="1.000000" stroke="none" 
	d="
M332.517853,401.768738 
	C332.230072,374.933960 332.237854,347.976624 332.212067,321.019257 
	C332.208191,316.970703 332.896790,312.911469 336.959045,311.409119 
	C339.440826,310.491302 342.980713,310.587402 345.374268,311.687866 
	C349.519836,313.593872 349.674591,318.018921 349.675720,322.106781 
	C349.680664,339.912018 349.674927,357.717285 349.683502,375.522522 
	C349.684448,377.518219 349.751617,379.513947 349.875763,382.013000 
	C344.243134,388.892975 338.522797,395.269562 332.517853,401.768738 
z"/>
<path fill="#56CECE" opacity="1.000000" stroke="none" 
	d="
M110.071022,382.879883 
	C110.130157,362.761963 110.204422,342.945801 110.350151,323.130127 
	C110.367157,320.818665 110.504204,318.440308 111.068878,316.215637 
	C112.047531,312.359955 114.992020,310.329407 118.773766,310.238556 
	C122.753616,310.143005 125.917633,312.066132 127.050491,316.127899 
	C127.620033,318.169952 127.745171,320.388489 127.748955,322.527802 
	C127.795158,348.679688 127.781509,374.831665 127.766571,401.438293 
	C121.869019,395.655914 115.988258,389.418854 110.071022,382.879883 
z"/>
<path fill="#55CACC" opacity="1.000000" stroke="none" 
	d="
M221.542953,90.095993 
	C221.446075,79.770462 221.370102,69.444656 221.234055,59.119637 
	C221.208008,57.141209 220.945557,55.165894 220.490784,52.846729 
	C226.463028,47.975292 232.852585,47.945984 239.574768,52.206402 
	C239.450500,54.285065 238.818573,56.164391 238.794327,58.051529 
	C238.660965,68.423538 238.676300,78.797462 238.187225,89.593231 
	C232.324554,87.552666 226.930878,88.243576 221.542953,90.095993 
z"/>
<path fill="#6DE6E9" opacity="1.000000" stroke="none" 
	d="
M102.107224,243.373169 
	C107.474258,243.043854 112.721306,243.035919 118.378677,243.039337 
	C119.676781,244.006744 120.502708,245.030411 121.462135,245.908142 
	C129.050034,252.850204 129.666122,263.613098 122.853546,270.733063 
	C115.982018,277.914673 104.781464,277.823700 98.005005,270.531219 
	C91.350792,263.370300 92.161194,252.469543 99.841949,245.714233 
	C100.579010,245.065994 101.273163,244.368942 102.107224,243.373169 
z"/>
<path fill="#6DE6E9" opacity="1.000000" stroke="none" 
	d="
M341.070618,243.365753 
	C346.458252,243.042923 351.705902,243.035599 357.362885,243.040283 
	C358.769348,244.116364 359.705627,245.246216 360.773438,246.233887 
	C367.989868,252.908737 368.451355,263.797607 361.781342,270.758026 
	C355.053314,277.779022 344.063141,277.827606 337.277649,270.866455 
	C330.484924,263.897766 330.813904,253.234467 338.035950,246.385162 
	C338.993958,245.476593 339.965454,244.582230 341.070618,243.365753 
z"/>
<path fill="#6DE6EA" opacity="1.000000" stroke="none" 
	d="
M221.310364,90.366638 
	C226.930878,88.243576 232.324554,87.552666 238.091034,90.057343 
	C244.757187,95.082939 248.570908,101.155937 246.513977,109.550766 
	C244.801605,116.539413 238.980331,121.526543 232.094742,122.190651 
	C224.253082,122.946968 217.716141,119.364433 214.538147,112.568886 
	C211.468933,106.005913 212.833618,98.503731 218.085495,93.276031 
	C219.026291,92.339546 220.077530,91.514023 221.310364,90.366638 
z"/>
<path fill="#6DE6EA" opacity="1.000000" stroke="none" 
	d="
M272.820496,188.654602 
	C267.320068,191.519043 261.997894,191.541382 256.251678,189.087952 
	C249.866180,184.424057 245.933167,178.751251 247.319733,170.754883 
	C248.613495,163.293762 254.549973,157.708344 261.664307,156.890640 
	C269.412628,156.000076 276.147095,159.492401 279.392578,166.084015 
	C282.744659,172.892136 281.306213,180.714676 275.679138,186.120926 
	C274.844574,186.922760 273.913300,187.623901 272.820496,188.654602 
z"/>
<path fill="#6DE6EA" opacity="1.000000" stroke="none" 
	d="
M204.380585,188.835007 
	C198.797913,191.069962 193.451065,191.629852 187.739044,189.014206 
	C183.333344,185.415985 179.576447,181.727005 178.984451,175.949997 
	C178.125320,167.566177 182.619415,160.203934 190.279907,157.556458 
	C197.749039,154.975098 206.145203,157.938034 210.277267,164.613327 
	C214.750427,171.839661 213.569595,180.308167 207.234497,186.317368 
	C206.394302,187.114334 205.492340,187.846207 204.380585,188.835007 
z"/>
<path fill="#6DE6EA" opacity="1.000000" stroke="none" 
	d="
M144.775726,154.643707 
	C139.292908,156.548401 134.008789,157.548172 128.292007,155.072464 
	C121.986115,150.340881 117.921814,144.704712 119.314903,136.671051 
	C120.648033,128.983047 126.466797,123.642677 134.167450,122.679756 
	C141.295090,121.788506 148.261734,125.551361 151.412582,131.994293 
	C154.759186,138.837509 153.286255,146.673035 147.616287,152.072998 
	C146.775314,152.873932 145.861404,153.598282 144.775726,154.643707 
z"/>
<path fill="#6DE6EA" opacity="1.000000" stroke="none" 
	d="
M332.300812,154.765656 
	C326.784180,156.789474 321.471039,157.331543 315.796265,154.956116 
	C310.836487,150.910080 306.865723,146.610641 306.881500,139.896347 
	C306.900116,131.989441 311.893311,125.036407 319.220734,123.107315 
	C326.867126,121.094254 334.736084,124.272171 338.566650,130.920273 
	C342.595703,137.912949 341.399139,146.324051 335.544342,151.930191 
	C334.586365,152.847443 333.518311,153.649765 332.300812,154.765656 
z"/>
</svg>